<svg xmlns="http://www.w3.org/2000/svg" width="250.396mm" height="226.7704mm" viewBox="0 0 709.7841 642.8137"><defs><style>.cls-1{fill:#000091;}.cls-2{fill:#e1000f;}.cls-3{fill:#9d9d9c;}.cls-4{fill:none;}</style></defs><title>Republique_Francaise_RVB</title><g id="vect"><path d="M84.0045,209.5752h19.3086c13.8946,0,22.4659,7.1279,22.4659,18.8569,0,7.5791-3.6993,13.2632-10.1055,16.3311l19.85,27.97H120.1852L103.403,247.1992H96.8161v25.5337H84.0045Zm12.8116,10.9175v15.789h7.2187c5.4131,0,8.5713-2.8872,8.5713-8.03,0-4.7823-3.1582-7.7593-8.5713-7.7593Z"/><path d="M143.4645,209.5752H180.276v10.9175h-24v14.6162h20.3916v10.9175H156.276v15.789h24v10.9175H143.4645Zm12.4512-5.4136,10.1953-12.18h13.1728l-11.73,12.18Z"/><path d="M195.1647,209.5752h20.8428c13.8945,0,22.3759,7.1279,22.3759,18.8569,0,11.6392-8.4814,18.7671-22.3759,18.7671h-8.03v25.5337H195.1647Zm12.8125,10.9175v15.789h8.5713c5.4131,0,8.6621-2.8872,8.6621-8.03,0-4.7823-3.249-7.7593-8.6621-7.7593Z"/><path d="M286.2038,209.5752h12.8115v38.436c0,16.6016-9.7442,26.5264-25.624,26.5264-15.7891,0-25.5332-9.9248-25.5332-26.5264v-38.436H260.67v39.5186c0,8.4814,4.7822,13.4438,12.8125,13.4438,7.85,0,12.7217-4.9624,12.7217-13.4438Z"/><path d="M314.8961,209.5752h17.9551c13.1729,0,21.1133,6.4961,21.1133,17.1431a14.768,14.768,0,0,1-6.6768,12.4506c6.6768,2.9776,10.376,8.3912,10.376,14.9776,0,11.5488-8.9326,18.5864-23.459,18.5864H314.8961Zm12.8125,10.9175v13.8042h5.4131c4.8721,0,7.67-2.4361,7.67-6.9473,0-4.2407-2.7978-6.8569-7.67-6.8569Zm0,24.8115v16.5112h7.2178c5.9551,0,9.5645-3.1577,9.5645-8.3906s-3.6094-8.1206-9.5645-8.1206Z"/><path d="M370.7487,209.5752H383.56v51.5186h24v11.6391H370.7487Z"/><path d="M418.8405,209.5752H431.652v63.1577H418.8405Z"/><path d="M515.5622,277.1538a13.1065,13.1065,0,0,0,4.5107-.7217v10.8272a16.6761,16.6761,0,0,1-6.6768,1.1728c-7.0371,0-13.5332-2.8872-19.7588-8.3008l-7.4892-6.6767a33.4994,33.4994,0,0,1-8.6611,1.083c-19.94,0-33.5635-15.3384-33.5635-33.3833s13.624-33.3833,33.5635-33.3833c19.85,0,33.4736,15.3379,33.4736,33.3833A33.45,33.45,0,0,1,498.5094,267.5l3.7891,3.6089C507.1706,275.53,511.5016,277.1538,515.5622,277.1538Zm-17.7745-35.9995c0-12.09-8.4814-21.3838-20.3007-21.3838-11.91,0-20.3907,9.2935-20.3907,21.3838s8.4805,21.3833,20.3907,21.3833C489.3063,262.5376,497.7877,253.2441,497.7877,241.1543Z"/><path d="M560.4967,209.5752h12.8115v38.436c0,16.6016-9.7441,26.5264-25.624,26.5264-15.789,0-25.5332-9.9248-25.5332-26.5264v-38.436h12.8115v39.5186c0,8.4814,4.7823,13.4438,12.8125,13.4438,7.85,0,12.7217-4.9624,12.7217-13.4438Z"/><path d="M589.1891,209.5752h36.8125v10.9175h-24v14.6162h20.3906v10.9175H602.0016v15.789h24v10.9175H589.1891Z"/><path d="M84.0045,300.646h36.8116v10.9175h-24V326.18h20.3916v10.918H96.8161v26.706H84.0045Z"/><path d="M132.0963,300.646h19.3086c13.8946,0,22.4658,7.1279,22.4658,18.8569,0,7.5791-3.6992,13.2627-10.1054,16.3311l19.85,27.97H168.277L151.4948,338.27h-6.5869v25.5342H132.0963Zm12.8116,10.9175v15.789h7.2187c5.4131,0,8.5713-2.8877,8.5713-8.03,0-4.7823-3.1582-7.7593-8.5713-7.7593Z"/><path d="M210.2331,300.646h16.7812l23.91,63.1577H237.3l-6.0449-16.4209H205.9918l-6.0449,16.4209h-13.624Zm17.0517,35.8188-8.6611-23.7285-8.6621,23.7285Z"/><path d="M260.67,300.646h16.4219l28.24,45.2036V300.646h12.8115v63.1577H301.7223l-28.24-45.3833v45.3833H260.67Z"/><path d="M380.4909,344.9473l10.1054,7.7588A31.3848,31.3848,0,0,1,368.942,365.248l-7.85,13.0821H349.7243l7.94-13.2637c-16.4219-2.8867-27.2481-16.7812-27.2481-32.8418,0-18.0449,13.6241-33.3833,33.5635-33.3833,11.458,0,20.8418,5.1431,26.6162,12.812l-10.1054,7.85a19.7487,19.7487,0,0,0-16.5108-8.6616c-11.91,0-20.3906,9.2935-20.3906,21.3833s8.4805,21.3838,20.3906,21.3838A19.7483,19.7483,0,0,0,380.4909,344.9473Z"/><path d="M417.2165,300.646h16.7812l23.91,63.1577H444.2838l-6.0449-16.4209H412.9752L406.93,363.8037h-13.624Zm17.0517,35.8188-8.6611-23.7285-8.6621,23.7285Z"/><path d="M467.653,300.646h12.8125v63.1577H467.653Z"/><path d="M501.7594,346.4805c3.7891,4.872,8.8418,7.76,13.9844,7.76,5.0527,0,8.12-2.707,8.12-7.3086,0-11.2783-28.8721-8.7519-28.8721-29.7744,0-10.0151,8.211-18.3159,20.211-18.3159,9.4736,0,16.7812,4.2407,22.1054,10.647l-9.3837,8.3906c-3.6993-4.7817-7.85-7.85-12.6319-7.85-4.4209,0-7.3076,2.8872-7.3076,6.5864,0,11.2788,28.8721,8.6616,28.8721,30.0454-.1807,11.73-9.3838,18.9473-20.9326,18.9473-10.6465,0-17.8643-3.88-23.459-10.5566Z"/><path d="M550.3024,300.646h36.8115v10.9175h-24V326.18h20.3916v10.918H563.1139v15.789h24v10.917H550.3024Z"/><path d="M289.5183,538.1978c1.7134,0,3.1952,1.2966,2.408,4.5844l-7.9648,1.8523c1.3892-3.7046,3.7045-6.4367,5.5568-6.4367m4.3992,12.827H292.343c-1.9912,2.3617-4.1213,4.214-6.2514,4.214-2.1764,0-3.2878-1.2966-3.2878-4.214a17.4325,17.4325,0,0,1,.37-3.5193l12.827-4.2139c2.5006-5.9273-.5094-8.52-4.0287-8.52-6.0662,0-12.966,10.1412-12.966,19.0321,0,3.9824,1.8986,6.1589,4.8623,6.1589,3.473,0,7.0849-3.38,10.0486-8.9373m-2.5469-18.6154,9.03-8.4278v-.9725h-4.8622l-5.5568,9.4Zm-27.691,5.9273h4.26l-6.7608,18.4765c-.602,1.5744.2316,3.1489,1.8523,3.1489,3.8435,0,10.0486-3.7972,12.2251-8.9836h-1.204c-1.7134,1.806-5.0012,4.214-7.8259,4.7233l6.2051-17.3651h6.3441l.7872-2.6395h-6.1588l2.3616-6.6682h-2.4543l-4.3991,6.6682-5.2327.7409Zm-5.7415-.88a1.9,1.9,0,0,0-1.5281-2.6858c-3.7046,0-8.1037,3.3341-9.8634,8.0111h1.204c1.204-1.7134,3.2415-3.6119,5.14-3.9361l-7.085,18.43a1.8452,1.8452,0,0,0,1.5281,2.6858c3.5194,0,7.6407-3.38,9.4-8.0111H255.53c-1.204,1.7133-3.2415,3.6119-5.14,3.9361Zm1.2966-9.2614a3.0563,3.0563,0,1,0-3.0562-3.0563,3.0533,3.0533,0,0,0,3.0562,3.0563m-40.7958,28.34c-.9262,2.0838.0463,3.4267,2.0838,3.4267,1.25,0,1.806-.3242,2.3153-1.6671l4.9086-13.0122c2.269-2.7784,6.946-5.7421,8.7983-5.7421,1.3429,0,1.1577,1.1114.2778,2.7784l-7.548,14.4941a2.128,2.128,0,0,0,1.8523,3.1489c3.7045,0,8.1037-3.3341,9.8633-8.0111h-1.2039c-1.204,1.7133-3.2415,3.6119-5.14,3.9361l6.483-13.1049a10.51,10.51,0,0,0,1.25-4.4918,3.19,3.19,0,0,0-3.4268-3.5193c-3.1951,0-6.4366,3.6119-10.28,8.0574v-3.4267c0-2.4543-.7872-4.6307-3.01-4.6307-1.3892,0-2.7322,1.204-3.9824,2.9173v.4631c2.4079-.1389,3.473,3.473,1.76,7.27Zm-.0921-16.1149c.88-3.01.4168-5.6494-1.8985-5.6494-2.7322,0-3.4268,2.0838-6.2052,8.0574v-3.4267c0-2.4543-.7872-4.6307-3.01-4.6307-2.5932,0-4.9549,4.0287-6.7608,8.0111h1.2039c1.25-1.806,2.408-2.871,3.3341-2.871,1.1114,0,1.7134,1.7133,0,5.51l-5.0011,11.1137c-.9262,2.0838.0463,3.4267,2.0838,3.4267,1.25,0,1.806-.3242,2.3154-1.6671l4.9085-13.0122c1.3892-1.7134,2.6395-3.1952,4.2139-4.8623Zm-28.4324-2.2227c1.7133,0,3.1952,1.2966,2.4079,4.5844l-7.9648,1.8523c1.3892-3.7046,3.7046-6.4367,5.5569-6.4367m4.3991,12.827h-1.5744c-1.9912,2.3617-4.1213,4.214-6.2514,4.214-2.1765,0-3.2878-1.2966-3.2878-4.214a17.44,17.44,0,0,1,.37-3.5193l12.827-4.2139c2.5006-5.9273-.5093-8.52-4.0287-8.52-6.0662,0-12.9659,10.1412-12.9659,19.0321,0,3.9824,1.8986,6.1589,4.8622,6.1589,3.473,0,7.085-3.38,10.0486-8.9373m-30.2384-12.6881h4.26l-6.7608,18.4765c-.602,1.5744.2316,3.1489,1.8523,3.1489,3.8435,0,10.0486-3.7972,12.225-8.9836h-1.2039c-1.7134,1.806-5.0012,4.214-7.8259,4.7233l6.2051-17.3651h6.3441l.7872-2.6395H173.8l2.3616-6.6682h-2.4543l-4.3991,6.6682-5.2327.7409Zm-23.3844,14.4015c0-5.6958,6.344-13.429,9.91-13.429a7.9972,7.9972,0,0,1,2.1764.2778l-3.7046,9.8634c-2.13,2.5932-5.4179,5.7421-6.946,5.7421-.88,0-1.4355-.741-1.4355-2.4543m19.4952-19.0322-1.9449-.1389-2.1764,2.13h-.4631c-10.558,0-19.68,11.8546-19.68,20.4677a3.5041,3.5041,0,0,0,3.7971,3.7972c2.7321,0,5.4179-3.89,8.4279-8.0574l-.1389,1.4818c-.3705,4.26.9261,6.5756,3.1488,6.5756,2.5932,0,4.9549-4.0287,6.7609-8.0111h-1.204c-1.25,1.8059-2.408,2.871-3.3341,2.871-.9725,0-1.6671-1.76,0-5.51Zm-22.5046,6.7145c.88-3.01.4168-5.6494-1.8986-5.6494-2.7321,0-3.4267,2.0838-6.2051,8.0574v-3.4267c0-2.4543-.7872-4.6307-3.01-4.6307-2.5932,0-4.9548,4.0287-6.7608,8.0111h1.204c1.25-1.806,2.408-2.871,3.3341-2.871,1.1114,0,1.7134,1.7133,0,5.51l-5.0012,11.1137c-.9261,2.0838.0464,3.4267,2.0839,3.4267,1.25,0,1.8059-.3242,2.3153-1.6671l4.9085-13.0122c1.3893-1.7134,2.6395-3.1952,4.214-4.8623Zm-35.47,18.6154.463-1.4355c-6.1588-1.1577-6.946-1.1577-4.4918-7.8722l2.5006-6.9H107.49c3.0563,0,3.1026,1.25,2.6395,4.5844h1.76l4.075-11.16h-1.76c-1.5282,2.6395-2.7322,4.5844-6.0663,4.5844h-6.7145l3.5657-9.7708c1.1113-3.1025,1.76-3.7508,5.9273-3.7508H113.88c4.3066,0,4.8159,1.1576,4.8159,5.51h1.7134l1.4355-7.5943H96.2835l-.4631,1.4355c4.9548,1.0187,5.4179,1.4818,3.1026,7.8722l-5.5569,15.1886c-2.3153,6.3441-3.2878,6.8535-8.9835,7.8722l-.4168,1.4355Z"/><path d="M227.515,480.3141c1.7134,0,3.1952,1.2966,2.408,4.5844l-7.9648,1.8523c1.3892-3.7046,3.7046-6.4367,5.5568-6.4367m4.3992,12.827H230.34c-1.9912,2.3617-4.1214,4.214-6.2515,4.214-2.1764,0-3.2878-1.2966-3.2878-4.214a17.44,17.44,0,0,1,.37-3.5193l12.827-4.2139c2.5006-5.9273-.5094-8.52-4.0287-8.52-6.0662,0-12.9659,10.1412-12.9659,19.0322,0,3.9824,1.8985,6.1588,4.8622,6.1588,3.473,0,7.085-3.38,10.0486-8.9373m-2.5469-18.6153,9.03-8.4279v-.9725h-4.8623l-5.5568,9.4Zm-27.691,5.9272h4.26L199.1758,498.93c-.602,1.5745.2315,3.1489,1.8522,3.1489,3.8435,0,10.0487-3.7972,12.2251-8.9836h-1.204c-1.7134,1.806-5.0012,4.214-7.8259,4.7233l6.2052-17.3651h6.344l.7872-2.6395h-6.1588l2.3617-6.6682h-2.4543l-4.3992,6.6682-5.2327.741Zm-5.7414-.88a1.9,1.9,0,0,0-1.5282-2.6858c-3.7045,0-8.1037,3.3341-9.8634,8.0111h1.204c1.204-1.7133,3.2415-3.6119,5.14-3.9361l-7.085,18.43a1.8452,1.8452,0,0,0,1.5282,2.6858c3.5193,0,7.6406-3.38,9.4-8.0111h-1.204c-1.204,1.7133-3.2415,3.6119-5.14,3.9361Zm1.2966-9.2614a3.0563,3.0563,0,1,0-3.0563-3.0562,3.0533,3.0533,0,0,0,3.0563,3.0562m-24.6353,27.6916,12.92-33.85-.4168-.5094-8.1037.9262v.9724l1.5745,1.204c1.4355,1.1114.9724,2.1764-.3242,5.6031l-10.0949,26.58a2.128,2.128,0,0,0,1.8523,3.1489c3.7045,0,7.6406-3.3341,9.4-8.0111h-1.204a10.4579,10.4579,0,0,1-5.6031,3.9361m-24.5421-3.1489c0-5.6958,6.344-13.429,9.91-13.429a7.9974,7.9974,0,0,1,2.1765.2778l-3.7046,9.8634c-2.13,2.5932-5.4179,5.7421-6.946,5.7421-.88,0-1.4355-.7409-1.4355-2.4543m19.4952-19.0321-1.9449-.139-2.1764,2.13h-.4631c-10.558,0-19.68,11.8546-19.68,20.4677a3.5042,3.5042,0,0,0,3.7972,3.7972c2.7321,0,5.4179-3.89,8.4279-8.0574l-.1389,1.4818c-.37,4.26.9261,6.5756,3.1488,6.5756,2.5932,0,4.9549-4.0287,6.7608-8.0111h-1.2039c-1.25,1.806-2.408,2.871-3.3341,2.871-.9725,0-1.6671-1.76,0-5.5105Zm-47.14,30.7478c0-2.4543,2.3616-3.9824,5.742-5.3253a42.1394,42.1394,0,0,0,5.0012,1.8985c3.5193,1.1577,4.8622,1.6208,4.8622,2.6858,0,2.2691-3.8435,3.9824-9.0761,3.9824-4.3992,0-6.5293-.9261-6.5293-3.2414m9.5855-14.9572c-1.5281,0-2.13-1.2966-2.13-2.7784,0-4.1213,2.2227-10.1875,5.6958-10.1875,1.5281,0,2.13,1.2966,2.13,2.7784,0,4.1213-2.2228,10.1875-5.6958,10.1875m10.0486,12.6881c0-2.9636-2.6395-4.0287-6.946-5.3253-3.7046-1.1113-5.3716-1.4355-5.3716-2.6395,0-.9724.7872-2.13,2.3616-2.9636A10.7987,10.7987,0,0,0,140.09,483a6.2463,6.2463,0,0,0-.5093-2.5469h5.14l.7873-2.6395h-8.15a6.2951,6.2951,0,0,0-3.2878-.9261,10.7387,10.7387,0,0,0-10.6043,10.2338,5.963,5.963,0,0,0,4.9086,6.1589c-3.01,1.3429-4.677,2.9173-4.677,4.77a2.9129,2.9129,0,0,0,1.25,2.5006c-6.9461,2.0375-9.6782,4.3528-9.6782,7.6406,0,3.1952,4.2139,4.5381,9.2151,4.5381,8.4742,0,15.5591-4.5844,15.5591-8.4279M107.675,484.4817c3.0562,0,3.1025,1.25,2.6395,4.5844h1.76l4.075-11.16h-1.76c-1.5281,2.6395-2.7321,4.5843-6.0662,4.5843h-6.7145l3.38-9.3077c1.1113-3.1025,1.76-3.7045,5.9273-3.7045H113.88c4.3066,0,4.8159,1.1577,4.8159,5.4642h1.7134l1.4355-7.5943H96.2835l-.4631,1.4355c4.9548,1.0187,5.4179,1.4818,3.1026,7.8722l-5.5569,15.1887c-2.3153,6.344-3.2878,6.8534-8.9835,7.8721l-.4168,1.4355h28.4325l5.0937-8.0574h-1.9448c-3.2415,3.0563-7.3165,5.9736-13.0123,5.9736-7.548,0-6.8534-.3241-4.3529-7.2238l2.6859-7.3629Zm3.7045-19.4026,9.03-6.2051v-.9724h-5.4642l-5.0012,7.1775Z"/><path d="M224.5045,422.43c1.7134,0,3.1952,1.2966,2.408,4.5844l-7.9648,1.8523c1.3892-3.7046,3.7045-6.4367,5.5568-6.4367m4.3992,12.8271h-1.5745c-1.9912,2.3616-4.1213,4.2139-6.2514,4.2139-2.1764,0-3.2878-1.2966-3.2878-4.2139a17.4335,17.4335,0,0,1,.3705-3.5194l12.827-4.2139c2.5-5.9273-.5094-8.5205-4.0287-8.5205-6.0662,0-12.966,10.1412-12.966,19.0322,0,3.9824,1.8986,6.1588,4.8623,6.1588,3.473,0,7.0849-3.38,10.0486-8.9372m-2.5469-18.6154,9.03-8.4279v-.9724h-4.8622l-5.5568,9.4Zm-26.5333,5.9273h3.38l-6.7608,18.4764c-.602,1.5745.2315,3.1489,1.8523,3.1489,3.8434,0,10.0486-3.7972,12.225-8.9835h-1.204c-1.7133,1.8059-5.0011,4.2139-7.8259,4.7233l6.2052-17.3651h6.344l.7872-2.6395h-6.1588l2.3617-6.6682h-2.4543l-4.3992,6.6682-4.3528.7409Zm-3.3335,2.0838c.88-3.01.4167-5.65-1.8986-5.65-2.7321,0-3.4267,2.0838-6.2052,8.0574v-3.4267c0-2.4543-.7872-4.6307-3.01-4.6307-2.5932,0-4.9548,4.0287-6.7608,8.0111h1.204c1.25-1.8059,2.4079-2.871,3.3341-2.871,1.1113,0,1.7133,1.7133,0,5.51l-5.0012,11.1137c-.9261,2.0838.0463,3.4267,2.0838,3.4267,1.25,0,1.806-.3242,2.3154-1.667l4.9085-13.0123c1.3892-1.7134,2.6395-3.1952,4.2139-4.8622ZM168.0575,422.43c1.7134,0,3.1952,1.2966,2.408,4.5844l-7.9648,1.8523c1.3892-3.7046,3.7045-6.4367,5.5568-6.4367m4.3992,12.8271h-1.5745c-1.9912,2.3616-4.1213,4.2139-6.2514,4.2139-2.1764,0-3.2878-1.2966-3.2878-4.2139a17.4407,17.4407,0,0,1,.37-3.5194l12.8271-4.2139c2.5-5.9273-.5094-8.5205-4.0287-8.5205-6.0663,0-12.966,10.1412-12.966,19.0322,0,3.9824,1.8986,6.1588,4.8623,6.1588,3.473,0,7.0849-3.38,10.0486-8.9372m-31.4419,5.1863c-1.25,0-3.0562-1.1576-3.0562-2.1764a25.8311,25.8311,0,0,1,1.25-3.5656l2.0838-5.5106c2.2227-2.6394,5.6031-5.4642,7.5017-5.4642,1.1577,0,2.0375.7409,2.0375,2.4543,0,5.0475-4.7233,14.2625-9.8171,14.2625m14.5867-16.3c0-3.7509-1.3892-5.14-3.9824-5.14-3.2415,0-6.2977,3.4267-9.354,7.5944l7.7333-20.3288-.4168-.5094-8.1037.9262v.9724l1.5744,1.204c1.4355,1.1114.9725,2.269-.3241,5.6031l-8.3353,21.4865a24.3724,24.3724,0,0,0-1.3429,3.9361c0,2.2227,3.01,4.3065,5.7421,4.3065,6.2977,0,16.8094-11.3452,16.8094-20.0509m-25.19-2.4543a1.9,1.9,0,0,0-1.5281-2.6858c-3.7046,0-8.1037,3.3341-9.8634,8.0111h1.204c1.204-1.7133,3.2415-3.6119,5.14-3.9361l-7.0849,18.43a1.8452,1.8452,0,0,0,1.5281,2.6858c3.5193,0,7.6407-3.38,9.4-8.0111h-1.204c-1.2039,1.7134-3.2414,3.6119-5.14,3.9361Zm1.2966-9.2614a3.0563,3.0563,0,1,0-3.0563-3.0562,3.0533,3.0533,0,0,0,3.0563,3.0562m-18.6611-2.9636H96.1909L95.7278,410.9c4.9548,1.0188,5.4179,1.4818,3.1025,7.8722l-5.4642,15.1887c-2.3153,6.344-3.2878,6.8534-8.9835,7.8721l-.4168,1.4356H109.62l5.5568-9.91h-1.9449c-3.1489,3.473-6.8534,7.8258-12.5492,7.8258-4.3065,0-4.8159-.7409-2.5006-7.2238l5.4643-15.1887c2.269-6.3441,3.2878-6.8534,8.9835-7.8722Z"/><path class="cls-1" d="M179.1279,157.7577c.9-.9,1.8089-1.8665,2.7121-2.8367h-.02a53.8011,53.8011,0,0,1,5.2858-5.3948,17.574,17.574,0,0,1,1.7235-1.378c.1587-.1584.1587-.4754.3171-.6339-.7923.3171-1.268.9509-2.06,1.2679-.1586,0-.3167-.1584-.1586-.317q.8474-.6351,1.6936-1.27c-.0349.0021-.0718.0023-.1086.0023-.1584,0-.1584-.1584-.1584-.3169-2.06-.3171-3.645,1.1093-5.0714,2.3771-.3171.1586-.6339-.1585-.7923-.1585-2.377.7924-4.12,2.8527-6.4975,3.8035v-.317a30.4292,30.4292,0,0,1-2.8526,1.1094,16.93,16.93,0,0,1-3.9621.1584,53.1492,53.1492,0,0,0-5.7623,1.0258c-.055.0145-.1112.0269-.166.0418a13.3848,13.3848,0,0,0-2.9531,1.1891c-.0365.02-.0723.0413-.1077.0627-.0791.0991-.1565.1941-.23.2745a3.8364,3.8364,0,0,1-1.0867.948,16.0331,16.0331,0,0,0-2.6281,2.06.4486.4486,0,0,1-.2541.0805c-.85.8151-1.6887,1.6422-2.5523,2.4431a.7916.7916,0,0,1-.4837.0583c.0041-.0055.01-.0087.0136-.0148.03-.05.0608-.1006.0911-.1511q.2-.3354.4062-.6683.23-.3717.47-.7361c.2159-.3278.4378-.6517.6742-.9647a.1484.1484,0,0,0-.0057-.2082.3017.3017,0,0,0-.2189-.0824,15.0093,15.0093,0,0,1,2.66-1.9857l0-.0268c-.1058.0367-.2593-.0479-.1791-.16.1-.14.1791-.2894.2729-.432.0179-.0468.0343-.094.0509-.1413-.04-.0419-.08-.0831-.12-.125a6.0682,6.0682,0,0,0-.7448.5206c-.3793.3419-.6759,1.0406-1.2514,1.0339a.9708.9708,0,0,1-.24-.0343.4642.4642,0,0,1-.1663-.0564l.02-.0369.0238-.0433.0229-.0411q.0372-.0681.0752-.1362c.0254-.0455.05-.0913.0755-.1369.0207-.0365.04-.0734.0608-.11.0379-.0669.0742-.1345.1123-.2012.0273-.0481.0559-.0953.0835-.1432.0673-.1171.136-.2332.2042-.35.0327-.056.0651-.1122.0981-.1681.0565-.0959.1112-.1929.1682-.2883a.1878.1878,0,0,0-.1188-.2832,3.6186,3.6186,0,0,1,1.085-.9456h-.0477c.6069-.3054,1.2135-.6767,1.82-1.0175.0872-.0758.1739-.1522.262-.2267a10.7043,10.7043,0,0,0-2.5207,1.2442,1.2413,1.2413,0,0,0-.2678.1445.3922.3922,0,0,1-.395-.1445.1843.1843,0,0,1-.0382-.1167c.1587-.3169.6342-.4756.951-.7924.1584,0,.3168,0,.3168.1584,5.0714-3.9619,12.0444-3.0109,17.9081-5.0712l1.4262-.9509c.7922-.3168,1.4261-1.1092,2.377-1.5848a6.941,6.941,0,0,0,2.6941-3.6448.5539.5539,0,0,0-.1584-.3171,24.3982,24.3982,0,0,1-6.973,5.23c-3.328,1.7432-6.9728,1.4262-10.4594,1.9016.1587-.3168.4755-.3168.7923-.3168,0-.4756.317-.634.6341-.951h.4755c.1583,0,.1583-.317.3167-.317.3168,0,.7926-.1584.6342-.1584-.4758-.634-1.4264.4754-2.2189,0,.317-.317.1584-.7924.4754-.9508h.6339a1.1064,1.1064,0,0,1,.317-.634c2.3771-1.4263,4.5958-2.5355,6.8144-3.8035-.4754,0-.7922.4756-1.2677.1586.3171,0,0-.4755.3171-.4755,1.7431-.4753,3.1695-1.4263,4.9127-2.06-.6338,0-1.11.4753-1.7432,0,.3168-.1586.4752-.4755.9507-.4755v-.4753c0-.1586.1587-.1586.3171-.1586a.5542.5542,0,0,1-.3171-.1585c.1587-.3168.6339-.1584.9509-.4753-.1584,0-.4754,0-.4754-.1586a3.144,3.144,0,0,1,2.06-.9509c-.1586-.3168-.6341,0-.6341-.3168,0-.1585.1587-.1585.3171-.1585h-.3171c-.3168-.1584-.1584-.4755-.1584-.6339.9509-1.1093.9509-2.5357,1.4261-3.8036-.1584,0-.3168,0-.3168-.1584-1.5848,1.7432-4.1205,2.3772-6.4975,3.0111H171.08a3.2176,3.2176,0,0,1-2.6941-.1584,11.1039,11.1039,0,0,1-1.5848-1.2679,18.2306,18.2306,0,0,0-3.9619-1.9017,35.5776,35.5776,0,0,0-12.2026-1.7432c1.7432-.9508,3.6661-1.0317,5.5467-1.5848,2.6941-.7924,5.23-1.7432,8.0821-1.5848a5.315,5.315,0,0,0-1.5848,0c-2.2184-.1584-4.4374.4755-6.8144.9508-1.5845.3171-3.0109.9509-4.5957,1.268-.9509.3168-1.4264,1.2677-2.5357,1.1092v-.4755c1.5848-1.9017,3.4863-3.8033,6.0223-3.9618,2.8523-.4755,5.5464,0,8.3992.3169a40.1822,40.1822,0,0,1,6.0218,1.1093c.7926,0,.951,1.2679,1.5851,1.4263.9507.3171,1.9016,0,2.8522.634,0-.3169-.1584-.634,0-.9508.6339-.634,1.4264.1584,2.0606-.1585,1.2677-.7924-1.1094-2.2187-1.7435-3.328a.5543.5543,0,0,1,.1584-.3171c1.2677,1.1095,2.2189,2.3772,3.8035,3.17.7922.3169,2.6941.7924,2.377-.1584-.7923-1.7433-2.377-3.17-3.6448-4.7544v-.6339c-.3168,0-.3168-.1585-.4754-.3169v-.6338c-.6339-.3171-.4752-.951-.7926-1.4263-.4752-.7924-.1584-1.9019-.4752-2.8528a16.6181,16.6181,0,0,1-.6341-2.694c-.4752-2.6941-1.1091-5.0712-1.4261-7.6069-.3168-3.0109,1.7434-5.3881,3.17-8.0821a13.5642,13.5642,0,0,1,4.4373-5.0713,13.9038,13.9038,0,0,1,3.0112-5.0712,13.2056,13.2056,0,0,1,4.8918-3.17,42.2451,42.2451,0,0,1,4.2121-1.6079H83.7844v83.864h77.0217c3.0174-2.1721,6.0305-3.2041,10.2421-5.2792C173.0365,161.3888,177.5861,159.2993,179.1279,157.7577Zm-24.37-11.3527c-.317,0-.9509.1584-.7925-.1583.1584-.7924,1.2677-.7924,1.9016-1.1095.3171-.1585.7923-.4753,1.1093-.3169.3171.4755.7926.3169,1.11.634C157.1346,146.405,155.8666,145.93,154.7575,146.405ZM130.51,142.9186a.5535.5535,0,0,1-.1584-.3171,48.96,48.96,0,0,0,5.0712-8.0822,21.8808,21.8808,0,0,0,5.3883-4.4372,30.8242,30.8242,0,0,1,8.8746-6.9731,6.1429,6.1429,0,0,1,4.12.1586c-.4757.6338-1.268.4753-1.9019.9508a.5823.5823,0,0,1-.4754-.1584.5827.5827,0,0,0,.1584-.4755c-1.5848,1.7432-3.8032,2.5356-5.0712,4.5957-.9509,1.5848-1.5848,3.6451-3.6448,4.12-.6341.1584.1584-.4753-.1586-.3169C137.8,134.9946,134.3139,138.64,130.51,142.9186Zm13.1536-10.46c-.1584.3171-.3337.3506-.4755.634a1.2362,1.2362,0,0,1-.6338.6339c-.1584,0-.3171,0-.3171-.1584a1.9347,1.9347,0,0,1,1.268-1.4264C143.664,132.1421,143.664,132.3006,143.664,132.459Zm7.36,23.744a1.4009,1.4009,0,0,1-.39.4624c.1979.04.3369.1279.2091.2452a3.4565,3.4565,0,0,1-1.2012.8379,1.2711,1.2711,0,0,1-.2438.0334c-.1941.1877-.389.3747-.5913.5539-.1881.1668-1.0592.0461-.7928-.19.4021-.3563.7748-.7434,1.1715-1.1058a7.7344,7.7344,0,0,0,.6589-.6312,1.9448,1.9448,0,0,1,.3406-.3509C150.3142,155.9664,151.1523,155.8921,151.0239,156.203Zm-2.84-1.31-.04.0275c-.5935.4178-1.1843.844-1.81,1.207-.6775.3931-1.3871.6922-2.09,1.0263a.17.17,0,0,0-.02-.0387.2085.2085,0,0,0-.2677-.0638,7.5386,7.5386,0,0,0-1.5954,1.2146q-.1108.1056-.22.2134l-.0128.0124-.0126.0121q-.1132.1114-.2252.2242l-.0267.0267c-.0046.0047-.0054.01-.01.0143-.1126.1123-.2217.2253-.3449.3708a.8968.8968,0,0,1-.2118.2216c-.0982.0655-.3708.0639-.3455-.1187.0014-.0105.0006-.0208.0017-.0311-.0935.0494-.187.0989-.2814.1441-.0869.0416-.1668.0892-.2475.1359a.2579.2579,0,0,0-.1091-.016.1975.1975,0,0,0-.1142.0385c-.1938.1518-.3858.3132-.5725.4826a8.1386,8.1386,0,0,0-.92.9777l-.0142.0144-.0311.0439c-.0158.02-.0319.0407-.0474.0613s-.0341.0432-.05.0654l-.0153.02c-.0376.0516-.0717.105-.1077.1575l-.0063.01a.2333.2333,0,0,1-.13.0623c-.0213-.0315-.0437-.0622-.0638-.0944-.0153-.025-.0295-.0511-.0442-.0765-.048-.0823-.0927-.1671-.1352-.2542l-.0044-.0091c-.0128-.0262-.0256-.0523-.0379-.0791.1721-.1843.3375-.3754.4978-.57l.0317-.0385c.0553-.0676.11-.1353.1646-.2034q.1345-.1692.2656-.339c.0321-.0419.0649-.0838.097-.1256.174-.2271.34-.4475.4957-.6695l.0114-.0169c.0232-.0331.0461-.0664.0685-.1.076-.1123.1488-.2256.2172-.3407q.0921-.1552.1734-.3163l.0126-.0234.0166-.0329c.0095-.0192.0169-.04.0259-.0589.0559-.1193.1058-.2428.1508-.37l.0139-.0411c.012-.0346.0242-.0687.0354-.104.0177-.0571.0341-.1156.05-.1747l0-.0007.009-.0385c.0194-.0766.04-.1521.0551-.2322a.1547.1547,0,0,0-.0191-.1068,5.0583,5.0583,0,0,1,.6281-.8555c-.0234.0145-.05.0265-.0728.0415-.2265.1456-.377.35-.5883.5077-.1726.129-.4907-.0846-.286-.2375a4.0169,4.0169,0,0,0,.36-.3265.164.164,0,0,1,.0174-.0257,7.9658,7.9658,0,0,1,.8078-.8044c.1824-.1331.34-.2442.4877-.372.0235-.02.0464-.0419.07-.0633a3.5644,3.5644,0,0,1,.3546-.4.1734.1734,0,0,1,.0164-.0156c1.5166-1.4639,4.07-1.3988,6.07-2.3322.7922-.317,1.7429.1585,2.5354,0a2.3538,2.3538,0,0,1,1.4261.317C150.7981,153.2035,149.4822,154.0789,148.1842,154.8935Zm3.2451-11.024c-.1584-.1585.4754,0,.6338-.317h-1.2677c-.1584,0-.1584-.1586-.1584-.317-.7925.1584-1.7434.4755-2.5357.634-1.1093.3168-2.06,1.1092-3.328,1.4263-1.7432.6337-3.1693,2.06-5.0712,2.694-.1586,0-.1586-.1584-.1586-.317.1586-.4754.7925-.6338,1.1093-1.1094,0-.1584,0-.3167-.1584-.3167,1.268-1.7433,3.0112-2.6942,4.596-4.12v-.4755c.4752-.6338,1.2677-.9509,1.5848-1.7433a2.8543,2.8543,0,0,1,1.5848-1.4261c-.1587-.1586-.4755-.1586-.4755-.4755-.6341,0-1.268.3169-1.9019-.1584a2.2457,2.2457,0,0,1,.9938-.5633.5739.5739,0,0,1-.36-.2291c-.1584-.3169.3062-.671.7925-.7924.6339-.1585,1.4262-.1585,1.9016-.634-1.1093-.1584-2.377.3171-3.4866-.3169a8.4626,8.4626,0,0,1,3.9621-4.7543c.1584,0,.4755,0,.4755.1584a1.5433,1.5433,0,0,1-1.268,1.5848,16.7261,16.7261,0,0,1,3.8037.9508c-.1587.3171-.4758.1586-.6342.1586.7926.4754,1.7435.1585,2.5358.7924-.4755.4754-.951,0-1.4264,0,4.913,1.4262,10.1426,2.5357,14.2628,5.705a43.6483,43.6483,0,0,1-10.9348,3.3281,3.4917,3.4917,0,0,1-1.2678-.1584c0,.1584,0,.4754-.1584.4754a2.6049,2.6049,0,0,0-1.5845.317C152.8557,144.1863,151.9047,144.3449,151.4293,143.87Z"/><path class="cls-2" d="M314.41,83.7838H224.1962a3.991,3.991,0,0,1,.8566.3963c.7325.3932,1.6805.9,2.2759,1.2116a7.4783,7.4783,0,0,1,3.0218,2.5356c.3171.4753.7925,1.4263.4755,2.06-.3171.7924-.4755,2.06-1.2677,2.3772a5.8833,5.8833,0,0,1-3.328.3169,7.9548,7.9548,0,0,1-1.9016-.3169c2.3768.9508,4.5954,2.06,6.18,4.2789.1587.3168.7925.4755,1.4264.4755.1587,0,.1587.3168.1587.4753-.3174.3171-.6342.4755-.4758.9508h.4758c.7922-.3169.6336-1.9016,1.7432-1.4261a1.7894,1.7894,0,0,1,.6338,2.3772,16.79,16.79,0,0,1-1.9018,1.5845,1.3546,1.3546,0,0,0,0,1.11,4.8841,4.8841,0,0,1,.7925,1.9017c.4755,1.1092.6339,2.3772,1.1093,3.4864A22.3134,22.3134,0,0,1,235.58,114.71c0,1.2677-.6339,2.3769-.1584,3.6449a13.3429,13.3429,0,0,0,1.7435,3.328,24.236,24.236,0,0,1,1.7431,2.5356c.9507,1.5848,2.6939,3.1694,1.9016,5.0713-.4754,1.1092-2.2186.9508-3.3279,1.5848-.951.7924-.1584,2.06.3167,2.8524.7926,1.4264-.9509,2.3772-2.06,2.8525.3168.4756.9506.3171,1.109.634.1587.7924.9509,1.2679.4758,2.06-.6342.9508-2.5358,1.4261-1.5848,2.8525.6338,1.1093.2232,2.3414-.1587,3.4865a3.8818,3.8818,0,0,1-2.8525,2.3771,6.4717,6.4717,0,0,1-3.0109.1584,2.2526,2.2526,0,0,0-.9507-.3168c-2.6944-.3171-5.3885-1.1095-8.0826-1.1095a9.0915,9.0915,0,0,0-2.2184.6339,14.0286,14.0286,0,0,0-1.9188,1.6966l-.0185.02c-.1189.1266-.2334.2549-.3457.3842-.0693.08-.1369.1614-.2042.2429-.0453.0545-.09.1089-.135.1638a15.0325,15.0325,0,0,0-1.2475,1.8262c-.0235.04-.0472.0807-.07.1213-.0417.0734-.0818.1477-.1224.2217a15.2856,15.2856,0,0,0-1.2,2.9077c-1.0775,3.6293-.6064,6.7426.15,7.4988.21.21,5.2307,1.76,8.7277,3.316a29.5729,29.5729,0,0,1,3.74,1.8925h88.59Z"/><path class="cls-3" d="M229.5621,114.3782c.6338.1585,1.5845.1585,1.5845.4754-.3168,1.2677-2.2192,1.5846-3.17,2.8529h-.4754c-.4752.317-.3168,1.1093-.7923,1.1093a2.2357,2.2357,0,0,0-1.4261.1585,2.7182,2.7182,0,0,0,2.3768.9507.7073.7073,0,0,1,.4754.6345.4905.4905,0,0,0,.3171-.1591c.1589,0,.3176,0,.3176.1591v.6339c-.4763.6337-1.2685.3162-1.9024.4753a7.0962,7.0962,0,0,0,3.6448,0c.9512-.3169,0-1.9022.6344-2.6944-.3168,0,0-.4754-.3168-.4754.3168-.317.6336-.7924.9507-.9508a1.1273,1.1273,0,0,0,.9506-.476c0-.3163-.633-.4748-.4752-.7924.9507-.6331,1.7429-1.5846,1.4267-2.5354-.159-.4753-1.4267-.4753-2.2192-.7922a5.2894,5.2894,0,0,0-2.6936.1585,13.1949,13.1949,0,0,0-2.3776.6337,10.9734,10.9734,0,0,0-3.0114,1.5846,22.4326,22.4326,0,0,1,3.4866-.9507A10.3876,10.3876,0,0,1,229.5621,114.3782Z"/></g><g id="zone"><rect class="cls-4" x="33.4852" y="-33.4852" width="642.8137" height="709.7841" transform="translate(676.2989 -33.4852) rotate(90)"/><rect class="cls-4" x="83.7844" y="83.7838" width="542.2164" height="475.2471"/></g></svg>