<?xml version="1.0" encoding="utf-8"?>
<!-- Generator: Adobe Illustrator 24.2.3, SVG Export Plug-In . SVG Version: 6.00 Build 0)  -->
<svg version="1.1" xmlns="http://www.w3.org/2000/svg" xmlns:xlink="http://www.w3.org/1999/xlink" x="0px" y="0px"
	 viewBox="0 0 197 268" style="enable-background:new 0 0 197 268;" xml:space="preserve">
<style type="text/css">
	.st0{fill:url(#SVGID_1_);}
</style>
<g id="BG">
</g>
<g id="graphics">
	<linearGradient id="SVGID_1_" gradientUnits="userSpaceOnUse" x1="88.5184" y1="170.4927" x2="107.6479" y2="35.1149">
		<stop  offset="0" style="stop-color:#73BF1D"/>
		<stop  offset="1" style="stop-color:#428500"/>
	</linearGradient>
	<path class="st0" d="M147.46,29.17c-16.67-10.65-30.07-4.76-36.49,14.09l-13.31,43.1c-1.29,4.12,0.62,7.45,4.27,7.45h36.72
		c11.46,0,20.26,13.91,11.13,25.21l-60.94,72.99c-2.82,3.49-7.09,2.11-5.84-1.89l14.05-55.35c1.29-4.12-0.62-7.45-4.26-7.45h-25.5
		c-14.47,0-18.21-10.6-15.2-21.59l16.79-63.15c2.9-10.91-7.87-21.16-17.51-15.3C25.47,43.03,8.18,71.51,8.18,104.02
		c0,68.17,55.91,80.92,45.12,142.72c48.06-19.62,134.38-72.59,134.38-142.72C187.69,72.76,171.97,44.82,147.46,29.17z"/>
</g>
</svg>
