<?xml version="1.0" encoding="UTF-8" standalone="no"?>
<svg
   xmlns:dc="http://purl.org/dc/elements/1.1/"
   xmlns:cc="http://creativecommons.org/ns#"
   xmlns:rdf="http://www.w3.org/1999/02/22-rdf-syntax-ns#"
   xmlns:svg="http://www.w3.org/2000/svg"
   xmlns="http://www.w3.org/2000/svg"
   xmlns:sodipodi="http://sodipodi.sourceforge.net/DTD/sodipodi-0.dtd"
   xmlns:inkscape="http://www.inkscape.org/namespaces/inkscape"
   width="128px"
   height="103px"
   viewBox="0 0 128 103"
   version="1.1"
   id="svg54"
   sodipodi:docname="FAIRE (1).svg"
   inkscape:version="1.0.1 (3bc2e813f5, 2020-09-07)">
  <metadata
     id="metadata60">
    <rdf:RDF>
      <cc:Work
         rdf:about="">
        <dc:format>image/svg+xml</dc:format>
        <dc:type
           rdf:resource="http://purl.org/dc/dcmitype/StillImage" />
      </cc:Work>
    </rdf:RDF>
  </metadata>
  <defs
     id="defs58" />
  <sodipodi:namedview
     pagecolor="#ffffff"
     bordercolor="#666666"
     borderopacity="1"
     objecttolerance="10"
     gridtolerance="10"
     guidetolerance="10"
     inkscape:pageopacity="0"
     inkscape:pageshadow="2"
     inkscape:window-width="1920"
     inkscape:window-height="1017"
     id="namedview56"
     showgrid="false"
     inkscape:zoom="0.7294184"
     inkscape:cx="196.96285"
     inkscape:cy="47.631441"
     inkscape:window-x="-8"
     inkscape:window-y="-8"
     inkscape:window-maximized="1"
     inkscape:current-layer="Refonte-Home-V5---P1-Vert-"
     inkscape:document-rotation="0" />
  <title
     id="title2">160F7896-2E42-4901-8165-76FE5506D653</title>
  <g
     id="Page-d'accueil"
     stroke="none"
     stroke-width="1"
     fill="none"
     fill-rule="evenodd">
    <g
       id="Refonte-Home-V5---P1-Vert-"
       transform="translate(-347.000000, -2771.000000)">
      <g
         id="FOOTER"
         transform="translate(0.000000, 2679.000000)">
        <g
           id="LOGO"
           transform="translate(56.000000, 86.000000)"
           fill="#EE771A"
           fill-rule="nonzero">
          <g
             id="LOGO/FAIRE"
             transform="translate(291.000000, 6.000000)">
            <g
               id="Logo-Faire19112020"
               transform="translate(0.000000, 8.675035)">
              <path
                 d="M40.276254,30.6122354 L32.293034,63.8194457 C32.1022664,64.6129568 32.3097816,65.444004 32.8571234,66.0784842 C33.4044651,66.7129644 34.2323938,67.0822446 35.1076848,67.0822446 L35.1076848,67.0822446 C36.4864763,67.0822446 37.6724045,66.1756503 37.9377328,64.9188308 L38.8983736,60.3682099 C39.0955501,59.4341433 39.9769249,58.7603868 41.0016379,58.7603944 L45.6127578,58.7603944 C46.6374805,58.7604007 47.5188572,59.4341664 47.716039,60.3682412 L48.6765618,64.9187838 C48.9418538,66.1756373 50.1277894,67.0822446 51.5066097,67.0822446 L51.5066097,67.0822446 C52.3818986,67.0822446 53.209823,66.7130039 53.7571634,66.0785253 C54.3045037,65.4440467 54.5120215,64.6130031 54.3212606,63.8194927 L46.3380237,30.6122354 C46.0210573,29.2937704 44.7615018,28.3562245 43.3071557,28.3562245 L43.3071557,28.3562245 C41.852797,28.3562245 40.5932232,29.2937589 40.276254,30.6122354 Z M45.6959831,50.8155905 C45.8358894,51.4861829 45.6459246,52.1797684 45.1780248,52.7067211 C44.710125,53.2336737 44.0132333,53.5388792 43.2778793,53.5388792 L43.2778793,53.5388792 C42.5425224,53.5388792 41.8456259,53.2336804 41.3777223,52.7067271 C40.9098188,52.1797738 40.7198518,51.4861856 40.8597586,50.8155905 L42.987375,40.8422346 C43.0143741,40.7156029 43.1339377,40.6242808 43.2729101,40.6242808 C43.4118825,40.6242808 43.5315331,40.7153902 43.558653,40.8419996 L45.6959831,50.8155905 Z"
                 id="Shape" />
              <path
                 d="M88.9783484,45.5434922 C89.7394902,43.9483343 90.1200611,42.0084579 90.1200611,39.7238632 C90.1200611,32.1457194 86.6068687,28.3561932 79.5804838,28.3561932 L73.533386,28.3561932 C71.5696448,28.3561932 69.9777181,29.8349316 69.9777181,31.659048 L69.9777181,64.3236151 C69.9777181,65.0552533 70.290607,65.7569255 70.847553,66.2742718 C71.404499,66.7916181 72.1598799,67.0822602 72.9475204,67.0822602 L72.9804058,67.0822602 C74.6205824,67.0822602 75.9502082,65.8471727 75.9502082,64.3236151 L75.9502082,52.4594672 C75.9502175,51.4034602 76.8718093,50.5474019 78.0086472,50.5474019 L78.0086472,50.5474019 C78.9089557,50.5474197 79.7047917,51.0909183 79.9733375,51.8891436 L84.4333702,65.1464308 C84.820823,66.2980578 85.9690112,67.0822602 87.2679209,67.0822602 L87.2679209,67.0822602 C88.2249194,67.0822602 89.1232572,66.6537508 89.6810328,65.9313971 C90.2388083,65.2090433 90.3876629,64.2812773 90.0808854,63.4392352 L84.9673781,49.4054231 C86.8795531,48.4260544 88.2165432,47.1387442 88.9783484,45.5434922 Z M83.9718451,42.1985606 C83.8849004,42.855851 83.6665161,43.4922664 83.3279325,44.0750502 C82.9709627,44.5872756 82.4627844,44.993208 81.8641117,45.2443492 C81.2391659,45.5163496 80.3998862,45.6524281 79.3462725,45.6524281 L78.6782777,45.6524281 C77.9547026,45.6524281 77.2607619,45.3854324 76.7491171,44.9101662 C76.2374722,44.4349 75.9500395,43.7902995 75.9500395,43.1181716 L75.9500395,36.1119179 C75.9500395,34.7122954 77.1715058,33.5776771 78.6782609,33.5776771 L79.0534408,33.5776771 C81.1220378,33.5776771 82.527317,34.0853085 83.2692785,35.1005714 C83.6389888,35.6945905 83.8777949,36.3509913 83.9717945,37.0315603 C84.2061631,38.747009 84.2061631,40.4830963 83.9717945,42.1985449 L83.9718451,42.1985606 Z"
                 id="path11" />
              <path
                 d="M112.721438,29.7235005 L112.721438,29.7235005 C112.721438,28.8389968 112.393956,27.9814017 111.793901,27.2946239 L91.8947415,4.52068466 C89.4801825,1.75729766 85.8529601,0.152532241 82.0214893,0.152532241 L47.051805,0.152532241 C42.5757195,0.152532241 38.3397815,2.03304981 35.5282804,5.26833859 L18.6343378,24.7087505 C16.583276,27.0689474 15.4645586,30.0106176 15.4645586,33.0438377 L15.4645586,64.3083102 C15.4645586,65.0439894 15.7791682,65.7495386 16.3391888,66.2697438 C16.8992094,66.7899491 17.6587622,67.0821976 18.4507531,67.0821976 L18.4507531,67.0821976 C19.2427456,67.0821976 20.0023001,66.7899496 20.5623234,66.2697448 C21.1223466,65.74954 21.4369644,65.0439909 21.4369644,64.3083102 L21.4369644,52.923988 C21.4369644,51.6114357 22.5824435,50.5474019 23.9954635,50.5474019 L28.9318788,50.5474019 C29.6772867,50.5474061 30.3921661,50.2723508 30.9192507,49.7827457 C31.4463352,49.2931406 31.7424485,48.6290917 31.7424485,47.9366834 L31.7424485,47.9366834 C31.7424485,47.2442751 31.4463352,46.5802263 30.9192507,46.0906212 C30.3921661,45.601016 29.6772867,45.3259608 28.9318788,45.325965 L23.9954972,45.325965 C23.3169323,45.325965 22.6661604,45.0755689 22.1863473,44.6298624 C21.7065342,44.1841559 21.4369847,43.5796499 21.4369982,42.9493319 L21.4369982,35.9542632 C21.4369982,34.6417109 22.5824772,33.5776771 23.9954972,33.5776771 L30.4543368,33.5776771 C32.0065491,33.5776857 33.2648785,32.4088534 33.2649065,30.9670056 L33.2649065,30.9670056 C33.2649065,29.525137 32.0065715,28.3562715 30.4543368,28.3562715 L24.0550957,28.3562715 C23.6276736,28.3562768 23.2382005,28.1283687 23.0536485,27.7702543 C22.8690966,27.41214 22.9222396,26.9874156 23.1902946,26.6781662 L37.0921908,10.639676 C37.7140222,9.92226854 38.652473,9.50542191 39.6440136,9.50619221 C40.6355542,9.50696251 41.5732531,9.92526668 42.1937918,10.6436393 L55.4068153,25.9397861 C57.2204812,28.0393846 58.2089415,30.6508165 58.208936,33.3427614 L58.208936,33.4427682 C58.208936,34.1784474 58.5235543,34.8839949 59.083578,35.4041972 C59.6436018,35.9243996 60.4031564,36.2166441 61.1951473,36.2166399 L61.1951473,36.2166399 C61.9871382,36.2166441 62.7466928,35.9243996 63.3067166,35.4041972 C63.8667403,34.8839949 64.1813586,34.1784474 64.1813586,33.4427682 L64.1813586,33.348119 C64.1813566,30.1201388 62.9781404,26.9917295 60.7761708,24.4944973 L46.4315868,8.22630797 C45.9297961,7.65721529 45.8259702,6.87047339 46.1649211,6.20564533 C46.5038721,5.54081727 47.2249102,5.11694148 48.0168306,5.11696557 L82.3857412,5.11696557 C84.2950553,5.11699331 86.1037066,5.91244263 87.313775,7.284327 L104.5077,26.7768884 C104.762634,27.0658987 104.815437,27.4655025 104.643315,27.8032039 C104.471193,28.1409054 104.10497,28.3562282 103.702733,28.3562245 L98.7211721,28.3562245 C96.6224632,28.3562245 94.9211236,29.9365964 94.9211236,31.886084 L94.9211236,63.552338 C94.9211236,65.5018256 96.6224632,67.0821976 98.7211721,67.0821976 L109.735159,67.0821976 C111.384435,67.0821976 112.721438,65.8402578 112.721438,64.3082475 L112.721438,64.3082475 C112.721438,62.7762408 111.384431,61.5343061 109.735159,61.5342975 L103.004619,61.5342975 C101.838706,61.5342975 100.893546,60.6563403 100.893546,59.5733253 L100.893546,52.1279285 C100.893546,51.6078464 101.115962,51.1090654 101.511865,50.7413118 C101.907768,50.3735582 102.444727,50.1669564 103.004619,50.1669564 L108.388511,50.1669564 C109.940786,50.1669477 111.199148,48.9980497 111.199148,47.5561439 L111.199148,47.5561439 C111.199148,46.1142407 109.940783,44.9453471 108.388511,44.9453471 L103.004754,44.9453471 C102.444862,44.9453471 101.907903,44.7387453 101.512,44.3709917 C101.116097,44.0032381 100.893681,43.5044571 100.893681,42.984375 L100.893681,35.5386962 C100.893681,34.4556812 101.83884,33.5777241 103.004754,33.5777241 L108.572332,33.5777241 C110.863853,33.5776808 112.721438,31.8520912 112.721438,29.7235005 L112.721438,29.7235005 Z"
                 id="Path" />
              <rect
                 id="rect14"
                 x="58.208936"
                 y="41.764352"
                 width="5.9724058"
                 height="25.3178455"
                 rx="2.9862029" />
              <polygon
                 id="polygon16"
                 points="1.90499078 75.5644752 0.0558039526 75.5644752 0.0558039526 74.1130927 5.83268511 74.1130927 5.83268511 75.5644752 4.0265191 75.5644752 4.0265191 84.8986118 1.90499078 84.8986118" />
              <path
                 d="M7.42366271,84.1462897 C6.90761528,83.547095 6.64959157,82.6704903 6.64959157,81.5164753 L6.64959157,77.4685826 C6.64959157,76.3234551 6.90761528,75.4579517 7.42366271,74.8720725 C7.93971014,74.2861933 8.7997892,73.9932537 10.0038999,73.9932537 C11.1983979,73.9932537 12.0537043,74.2861933 12.5698192,74.8720725 C13.0859341,75.4579517 13.3439578,76.3234551 13.3438904,77.4685826 L13.3438904,81.5164753 C13.3438904,82.6616029 13.0834888,83.5359884 12.5626856,84.139632 C12.0416913,84.7434008 11.188774,85.0452174 10.0039336,85.0450817 C8.79980044,85.0450817 7.93971014,84.7454843 7.42366271,84.1462897 Z M10.9499868,83.1809049 C11.1123675,82.905855 11.1935859,82.5063919 11.1936422,81.9825156 L11.1936422,77.0158735 C11.1936422,76.4921956 11.1148128,76.0971658 10.9571542,75.830784 C10.7994955,75.5644021 10.4817384,75.4313208 10.003883,75.4313208 C9.52591515,75.4313208 9.20576899,75.5666997 9.04344453,75.8374573 C8.88086148,76.1083403 8.79964304,76.5011509 8.799789,77.0158891 L8.799789,81.9825156 C8.799789,82.5064023 8.88100764,82.9058654 9.04344453,83.1809049 C9.20583645,83.4561637 9.52598261,83.5936834 10.003883,83.5936834 C10.4720134,83.5936834 10.7873813,83.4560906 10.9499868,83.1809049 L10.9499868,83.1809049 Z"
                 id="path18" />
              <path
                 d="M16.1102756,84.6189563 C15.6335228,84.3365134 15.2784561,83.9077518 15.1068501,83.4072673 C14.8968296,82.7600378 14.8000336,82.0856853 14.820157,81.4099518 L14.820157,74.1130927 L16.8843468,74.1130927 L16.8843468,81.6363299 C16.8607568,82.1254597 16.9411156,82.6141158 17.1208348,83.074397 C17.2785384,83.4118676 17.6010737,83.5805298 18.0884406,83.5803836 C18.585229,83.5803836 18.9125368,83.4117214 19.0703642,83.074397 C19.250131,82.6141262 19.3305079,82.1254643 19.3069028,81.6363299 L19.3069028,74.1130927 L21.3567578,74.1130927 L21.3567578,81.4099518 C21.3757513,82.0834487 21.2789711,82.7554487 21.0700648,83.4006252 C20.8997818,83.9034904 20.5445998,84.3347425 20.0666393,84.6189563 C19.5886489,84.903019 18.929255,85.0450503 18.0884574,85.0450503 C17.2474238,85.0450503 16.5880299,84.9030399 16.1102756,84.6189563 Z"
                 id="path20" />
              <polygon
                 id="polygon22"
                 points="24.1805997 75.5644752 22.3314129 75.5644752 22.3314129 74.1130927 28.1082941 74.1130927 28.1082941 75.5644752 26.3021281 75.5644752 26.3021281 84.8986118 24.1805997 84.8986118" />
              <path
                 d="M32.6521423,74.1130927 L36.0637892,74.1130927 C38.041971,74.1130927 39.0310619,75.1339428 39.0310619,77.175643 C39.0310619,79.1286468 37.9941832,80.1051122 35.9204258,80.1050391 L34.7593191,80.1050391 L34.7593191,84.8985962 L32.6521423,84.8985962 L32.6521423,74.1130927 Z M35.5764111,78.7202337 C36.1497971,78.7202337 36.5368327,78.6070472 36.7375178,78.3806744 C36.9382029,78.1543015 37.0385511,77.7481807 37.0385623,77.1623119 C37.049418,76.8334722 37.0157117,76.5046696 36.9382366,76.183643 C36.8807235,75.9691497 36.7337373,75.7847092 36.5296822,75.6709831 C36.2334897,75.5373927 35.9049573,75.4777358 35.5764111,75.4978824 L34.759336,75.4978824 L34.759336,78.7202337 L35.5764111,78.7202337 Z"
                 id="path24" />
              <path
                 d="M40.7940722,84.1462897 C40.2780248,83.547095 40.0200011,82.6704903 40.0200011,81.5164753 L40.0200011,77.4685826 C40.0200011,76.3234551 40.2780248,75.4579517 40.7940722,74.8720725 C41.3101196,74.2861933 42.1701987,73.9932537 43.3743094,73.9932537 C44.5688074,73.9932537 45.4241138,74.2861933 45.9402287,74.8720725 C46.4563436,75.4579517 46.7143673,76.3234551 46.7142999,77.4685826 L46.7142999,81.5164753 C46.7142999,82.6616029 46.4538927,83.5359884 45.9330783,84.139632 C45.4120952,84.7434008 44.5591779,85.0452174 43.3743262,85.0450817 C42.1702268,85.0450817 41.3101421,84.7454843 40.7940722,84.1462897 Z M44.3203963,83.1809049 C44.482777,82.905855 44.5640011,82.5063919 44.5640685,81.9825156 L44.5640685,77.0158735 C44.5640685,76.4921956 44.4852336,76.0971658 44.3275636,75.830784 C44.1698937,75.5644021 43.8521367,75.4313208 43.3742925,75.4313208 C42.8963246,75.4313208 42.5761841,75.5666997 42.4138709,75.8374573 C42.2512766,76.1083403 42.1700525,76.5011509 42.1701985,77.0158891 L42.1701985,81.9825156 C42.1701985,82.5064023 42.2514227,82.9058654 42.4138709,83.1809049 C42.5762516,83.4561637 42.8963921,83.5936834 43.3742925,83.5936834 C43.8424453,83.5936834 44.1578189,83.4560906 44.3204132,83.1809049 L44.3203963,83.1809049 Z"
                 id="path26" />
              <path
                 d="M49.480702,84.6189563 C49.0039492,84.3365134 48.6488825,83.9077518 48.4772764,83.4072673 C48.2672559,82.7600378 48.1704599,82.0856853 48.1905834,81.4099518 L48.1905834,74.1130927 L50.2547731,74.1130927 L50.2547731,81.6363299 C50.2311766,82.1254613 50.3115415,82.6141196 50.491278,83.074397 C50.6489592,83.4118676 50.9714888,83.5805298 51.4588669,83.5803836 C51.9556553,83.5803836 52.2829632,83.4117214 52.4407905,83.074397 C52.6205574,82.6141262 52.7009343,82.1254643 52.6773291,81.6363299 L52.6773291,74.1130927 L54.7271842,74.1130927 L54.7271842,81.4099518 C54.7461777,82.0834487 54.6493975,82.7554487 54.4404912,83.4006252 C54.2702082,83.9034904 53.9150261,84.3347425 53.4370656,84.6189563 C52.9590978,84.903019 52.2997038,85.0450503 51.4588838,85.0450503 C50.6178502,85.0450503 49.9584562,84.9030399 49.480702,84.6189563 Z"
                 id="path28" />
              <path
                 d="M56.3899531,74.1130927 L59.1852437,74.1130927 C60.4083998,74.1130927 61.3210449,74.3283589 61.9231789,74.7588913 C62.525313,75.1894238 62.8263406,75.9284357 62.8262619,76.9759272 C62.8489552,77.5479888 62.7389533,78.1178945 62.5037154,78.6469988 C62.2814475,79.0839432 61.8820625,79.4214278 61.3927968,79.585737 L63.0126124,84.8986118 L60.8910841,84.8986118 L59.5006061,79.9585693 L58.4971805,79.9585693 L58.4971805,84.8986118 L56.3899531,84.8986118 L56.3899531,74.1130927 Z M59.1708754,78.7335491 C59.7729532,78.7335491 60.2006036,78.6048384 60.4538266,78.3474171 C60.7070496,78.0899958 60.833678,77.6683351 60.833678,77.082435 C60.833678,76.5144559 60.7214011,76.1016774 60.4968474,75.8440994 C60.27217,75.5867407 59.8684051,75.4580248 59.2855526,75.4579517 L58.4971805,75.4579517 L58.4971805,78.7335491 L59.1708754,78.7335491 Z"
                 id="path30" />
              <polygon
                 id="polygon32"
                 points="68.086809 74.1130927 70.2799937 74.1130927 71.9284954 81.5830525 73.6343188 74.1130927 75.7701481 74.1130927 75.9852016 84.8985962 74.40839 84.8985962 74.2363742 77.4019898 72.5879062 84.8985962 71.3121391 84.8985962 69.6349681 77.3753589 69.477287 84.8985962 67.8861238 84.8985962" />
              <path
                 d="M79.4398187,74.1130927 L81.7046935,74.1130927 L84.026907,84.8985962 L82.063043,84.8985962 L81.6043341,82.4085939 L79.5831821,82.4085939 L79.1101049,84.8985962 L77.1176053,84.8985962 L79.4398187,74.1130927 Z M81.3750134,81.1569585 L80.5866076,76.6297101 L79.798185,81.1569585 L81.3750134,81.1569585 Z"
                 id="path34" />
              <path
                 d="M88.6711315,74.1130927 L91.4663715,74.1130927 C92.6895951,74.1130927 93.6022401,74.3283589 94.2043067,74.7588913 C94.8063733,75.1894238 95.107401,75.9284357 95.1073897,76.9759272 C95.130083,77.5479888 95.0200811,78.1178945 94.7848432,78.6469988 C94.5625753,79.0839432 94.1631903,79.4214278 93.6739246,79.585737 L95.2937402,84.8986118 L93.1722119,84.8986118 L91.7817339,79.9585693 L90.7783083,79.9585693 L90.7783083,84.8986118 L88.6711315,84.8986118 L88.6711315,74.1130927 Z M91.4520538,78.7335491 C92.0541091,78.7335491 92.4817539,78.6048384 92.7349881,78.3474171 C92.9882224,78.0899958 93.1148395,77.6683351 93.1148395,77.082435 C93.1148395,76.5144559 93.0025627,76.1016774 92.778009,75.8440994 C92.5533316,75.5867407 92.1495666,75.4580248 91.5667141,75.4579517 L90.7783083,75.4579517 L90.7783083,78.7335491 L91.4520538,78.7335491 Z"
                 id="path36" />
              <path
                 d="M96.7126851,74.1130927 L101.5865,74.1130927 L101.5865,75.497898 L98.8198788,75.497898 L98.8198788,78.6004104 L100.998746,78.6004104 L100.998746,79.9719004 L98.8198788,79.9719004 L98.8198788,83.5537528 L101.615136,83.5537528 L101.615136,84.8986118 L96.7126851,84.8986118 L96.7126851,74.1130927 Z M99.4649718,70.7043409 L101.443154,70.7043409 L99.7373302,73.3674282 L98.6048759,73.3674282 L99.4649718,70.7043409 Z"
                 id="path38" />
              <polygon
                 id="polygon40"
                 points="102.847848 74.1130927 104.324216 74.1130927 107.148176 80.2648243 107.148176 74.1130927 108.897003 74.1130927 108.897003 84.8985962 107.492208 84.8985962 104.653947 78.4539249 104.653947 84.8985962 102.847781 84.8985962" />
              <path
                 d="M111.24792,84.1462897 C110.731872,83.547095 110.473849,82.6704903 110.473849,81.5164753 L110.473849,77.4685826 C110.473849,76.3234551 110.731872,75.4579517 111.24792,74.8720725 C111.763967,74.2861933 112.624046,73.9932537 113.828157,73.9932537 C115.022655,73.9932537 115.877962,74.2861933 116.394076,74.8720725 C116.910191,75.4579517 117.168215,76.3234551 117.168148,77.4685826 L117.168148,81.5164753 C117.168148,82.6616029 116.90774,83.5359884 116.386926,84.139632 C115.865932,84.7434008 115.013014,85.0452174 113.828174,85.0450817 C112.624074,85.0450817 111.76399,84.7454843 111.24792,84.1462897 Z M114.774244,83.1809049 C114.936625,82.905855 115.017849,82.5063919 115.017916,81.9825156 L115.017916,77.0158735 C115.017916,76.4921956 114.939081,76.0971658 114.781411,75.830784 C114.623741,75.5644021 114.305984,75.4313208 113.82814,75.4313208 C113.350172,75.4313208 113.030032,75.5666997 112.867719,75.8374573 C112.705113,76.1083403 112.623889,76.5011509 112.624046,77.0158891 L112.624046,81.9825156 C112.624046,82.5064023 112.70527,82.9058654 112.867719,83.1809049 C113.030088,83.4561637 113.350229,83.5936834 113.82814,83.5936834 C114.296293,83.5936834 114.611667,83.4560906 114.774261,83.1809049 L114.774244,83.1809049 Z"
                 id="path42" />
              <polygon
                 id="polygon44"
                 points="118.128434 74.1130927 119.991939 74.1130927 121.52578 81.7428377 122.97358 74.1130927 124.880105 74.1130927 122.543557 84.8985962 120.465033 84.8985962" />
              <path
                 d="M126.126984,77.1623276 C126.393869,77.1792371 126.646527,77.0488587 126.772077,76.8294417 C126.906824,76.5121131 126.965524,76.1713243 126.944093,75.830784 L126.069662,75.830784 L126.069662,74.1130927 L127.933167,74.1130927 L127.933167,75.497898 C127.913897,76.2702038 127.787263,76.8405483 127.553265,77.2089316 C127.318986,77.5774089 126.915232,77.7660443 126.342004,77.7748377 L126.126984,77.1623276 Z"
                 id="path46" />
            </g>
          </g>
        </g>
      </g>
    </g>
  </g>
</svg>
