<?xml version="1.0" encoding="UTF-8"?>
<svg width="86px" height="86px" viewBox="0 0 86 86" version="1.1" xmlns="http://www.w3.org/2000/svg" xmlns:xlink="http://www.w3.org/1999/xlink">
    <title>FC470E9D-B249-434C-AA5D-0A12D494DE00</title>
    <g id="REFONTE---Page-d'accueil" stroke="none" stroke-width="1" fill="none" fill-rule="evenodd">
        <g id="Refonte-Home-V5---P1-Vert-" transform="translate(-508.000000, -2728.000000)">
            <rect fill="#FFFFFF" x="0" y="0" width="1440" height="3081"></rect>
            <g id="FOOTER" transform="translate(0.000000, 2628.000000)" fill-rule="nonzero">
                <g id="FOND" fill="#FAFAFA">
                    <polygon id="Rectangle" points="0 0 1440 3.89943946 1440 453 3.19744231e-13 453"></polygon>
                </g>
                <g id="LOGO" transform="translate(56.000000, 86.000000)">
                    <g id="FranceRelance" transform="translate(452.000000, 14.000000)">
                        <path d="M42.9584729,85.917421 C19.2330322,85.917421 -0.000237569061,66.6841512 -0.000237569061,42.9587105 C-0.000237569061,19.2332698 19.2330322,0 42.9584729,0 C66.6839136,0 85.9171834,19.2332698 85.9171834,42.9587105 C85.8903183,66.6730144 66.6727768,85.8905559 42.9584729,85.917421 Z M42.9584729,2.36129392 C20.5373319,2.36129392 2.36153149,20.5374111 2.36153149,42.9585521 C2.36153149,65.3796931 20.5374903,83.5556519 42.9586313,83.5556519 C65.3797723,83.5556519 83.5558895,65.3798515 83.5558895,42.9587105 C83.5305167,20.5479177 65.3692658,2.38673054 42.9584729,2.36129392 L42.9584729,2.36129392 Z" id="Shape" fill="#2FAC66"></path>
                        <path d="M42.9584729,64.8278453 C34.1131159,64.8278453 26.1387341,59.4995181 22.7537847,51.3274645 C19.3688353,43.155411 21.2399295,33.7489854 27.4945754,27.4944074 C33.7492213,21.2398294 43.1556673,19.3688374 51.327684,22.7538756 C59.4997008,26.1389138 64.8278453,34.1133534 64.8278453,42.9587105 C64.814203,55.0311375 55.0309001,64.8143341 42.9584729,64.8278453 L42.9584729,64.8278453 Z M42.9584729,21.9744729 C31.3693035,21.9744729 21.9744254,31.369351 21.9744254,42.9585204 C21.9744254,54.5476899 31.3693035,63.942568 42.9584729,63.942568 C54.5476424,63.942568 63.9425204,54.5476899 63.9425204,42.9585204 C63.9292974,31.3748634 54.5421301,21.9877811 42.9584729,21.9744729 L42.9584729,21.9744729 Z" id="Shape" fill="#2FAC66"></path>
                        <polygon id="Rectangle" fill="#E20E18" transform="translate(64.173979, 46.214172) rotate(-60.000600) translate(-64.173979, -46.214172) " points="56.9838805 42.317968 71.3640783 42.317968 71.3640783 50.1103757 56.9838805 50.1103757"></polygon>
                        <polygon id="Rectangle" fill="#FFFFFF" transform="translate(57.425772, 42.318068) rotate(-60.000600) translate(-57.425772, -42.318068) " points="50.2356732 38.4218644 64.6158709 38.4218644 64.6158709 46.2142721 50.2356732 46.2142721"></polygon>
                        <polygon id="Rectangle" fill="#253574" transform="translate(50.677652, 38.422137) rotate(-60.000600) translate(-50.677652, -38.422137) " points="43.4875528 34.5259335 57.8677506 34.5259335 57.8677506 42.3183413 43.4875528 42.3183413"></polygon>
                        <path d="M51.1901459,31.3359293 L70.0543646,42.2271403 L63.6613337,53.3004718 L44.7971149,42.4092608 L51.1901459,31.3359293 M50.898411,30.2472453 L43.7084309,42.7009481 L63.953211,54.3893459 L71.1432387,41.9356906 L50.898411,30.2472453 L50.898411,30.2472453 Z" id="Shape" fill="#253574"></path>
                        <polygon id="Rectangle" fill="#253574" transform="translate(44.394568, 41.954207) rotate(-60.009400) translate(-44.394568, -41.954207) " points="30.0993728 41.5114256 58.689764 41.5114256 58.689764 42.396988 30.0993728 42.396988"></polygon>
                        <polygon id="Rectangle" fill="#253574" transform="translate(28.491246, 42.263346) rotate(-29.999900) translate(-28.491246, -42.263346) " points="16.8028717 35.0732469 40.1796198 35.0732469 40.1796198 49.4534447 16.8028717 49.4534447"></polygon>
                        <polygon id="Path" fill="#FFE910" points="30.6459337 47.1408287 30.8996575 46.5944199 31.4769503 46.6614144 31.0388729 46.2751271 31.3016243 45.7467735 30.7951271 46.0399337 30.3603757 45.6602983 30.471558 46.2261878 29.9584088 46.5221989 30.5309503 46.5687624"></polygon>
                        <polygon id="Path" fill="#FFE910" points="26.1002873 39.0140663 26.3516354 38.4766851 26.9308287 38.5346519 26.4989282 38.145989 26.7559779 37.620011 26.2490055 37.9136464 25.8123536 37.5430387 25.9263867 38.0999006 25.4184641 38.3930608 25.9872044 38.4334475"></polygon>
                        <polygon id="Path" fill="#FFE910" points="24.1455691 45.4721436 24.3969171 44.9347624 24.987989 44.9856022 24.5556133 44.5978895 24.826442 44.079989 24.3123425 44.376 23.866663 44.0034917 23.9778453 44.5693812 23.4646961 44.8658674 24.0272597 44.8948508"></polygon>
                        <polygon id="Path" fill="#FFE910" points="32.5711934 40.592 32.8225414 40.0546188 33.4074365 40.1087845 32.9783867 39.7110939 33.2397127 39.2060221 32.7317901 39.4996575 32.2922873 39.1233481 32.3982431 39.6930387 31.8903204 39.9857238 32.452884 40.0147072"></polygon>
                        <polygon id="Path" fill="#FFE910" points="28.5596022 38.3322431 28.8171271 37.792011 29.4020221 37.8466519 28.9696464 37.457989 29.2309724 36.9372376 28.7230497 37.2308729 28.2797459 36.8483867 28.3885525 37.4242541 27.8749282 37.7202652 28.4450939 37.7606519"></polygon>
                        <polygon id="Path" fill="#FFE910" points="30.9158122 38.9641768 31.173337 38.4229945 31.758232 38.4771602 31.3230055 38.0832707 31.5838564 37.5634696 31.0759337 37.8561547 30.6359558 37.4803204 30.7357348 38.053337 30.2287624 38.345547 30.8036796 38.3830829"></polygon>
                        <polygon id="Path" fill="#FFE910" points="33.0487072 42.9235028 33.3033812 42.3922983 33.8935028 42.4431381 33.4611271 42.0544751 33.725779 41.5256464 33.2116796 41.8221326 32.7712265 41.4453481 32.8771823 42.0155138 32.3640331 42.3115249 32.9370497 42.3571381"></polygon>
                        <polygon id="Path" fill="#FFE910" points="32.3868398 45.3205746 32.6405635 44.7741657 33.2292597 44.8345083 32.793558 44.4396685 33.0601105 43.9165414 32.552663 44.2097017 32.1069834 43.8367182 32.2124641 44.4064088 31.7050166 44.6990939 32.274232 44.7394807"></polygon>
                        <polygon id="Path" fill="#FFE910" points="28.3035028 47.6782099 28.5572265 47.1318011 29.150674 47.1888177 28.710221 46.7973039 28.9767735 46.2746519 28.4631492 46.5701878 28.0236464 46.1943536 28.1291271 46.7635691 27.6150276 47.0600552 28.1851934 47.1009171"></polygon>
                        <polygon id="Path" fill="#FFE910" points="26.0014586 47.0077901 26.2561326 46.4761105 26.8377017 46.5245746 26.4086519 46.1416133 26.6723536 45.6127845 26.1592044 45.9092707 25.7225525 45.5391381 25.8247072 46.1021768 25.3167845 46.3958122 25.8888508 46.4414254"></polygon>
                        <polygon id="Path" fill="#FFE910" points="23.5278895 43.2294917 23.7787624 42.6921105 24.3703094 42.7434254 23.9346077 42.3485856 24.2011602 41.8259337 23.6875359 42.1219448 23.2423315 41.7489613 23.347337 42.3186519 22.8403646 42.611337 23.4095801 42.6521989"></polygon>
                        <polygon id="Path" fill="#FFE910" points="24.1194365 40.911768 24.3707845 40.3739116 24.9556796 40.4285525 24.523779 40.0398895 24.7846298 39.5200884 24.2776575 39.8127735 23.8277017 39.4340884 23.9431602 40.0061547 23.4295359 40.3021657 23.9992265 40.3430276"></polygon>
                        <polygon id="Rectangle" fill="#253574" transform="translate(41.532251, 41.954246) rotate(-30.000200) translate(-41.532251, -41.954246) " points="41.0894693 27.6591214 41.9750317 27.6591214 41.9750317 56.24937 41.0894693 56.24937"></polygon>
                        <polygon id="Path" fill="#2FAC66" points="10.5955801 27.3763657 13.6649724 22.0069249 15.2174862 22.8945779 13.2167271 26.3954431 15.4012696 27.6442961 17.1013613 24.6699315 18.6544928 25.5576796 16.9544011 28.5320442 20.8761436 30.7738884 19.807558 32.6428917"></polygon>
                        <path d="M17.3133204,17.6917204 L19.8049923,15.6162221 C21.598116,14.1221503 23.4706354,14.1207249 24.7315569,15.6343249 C25.5292379,16.5073461 25.7043151,17.7825276 25.1714398,18.8382287 L30.7283227,20.3230354 L28.7834398,21.9428762 L23.8614365,20.4622508 L23.0111768,21.1696365 L25.7565249,24.4648619 L24.1030442,25.8424773 L17.3133204,17.6917204 Z M20.1112188,17.6886796 L21.8668066,19.7959646 L22.7980773,19.019684 C23.2038749,18.7152649 23.4087773,18.2119145 23.3309639,17.7106285 C23.2531504,17.2093425 22.9052991,16.7917947 22.4263124,16.6247187 C21.9473258,16.4576426 21.4152445,16.5682598 21.042537,16.9123989 L20.1112188,17.6886796 Z" id="Shape" fill="#2FAC66"></path>
                        <path d="M32.5776077,8.6357779 L35.3058983,7.92492376 L41.8680785,17.1809945 L39.652937,17.7579547 L37.9746066,15.344253 L33.8670376,16.413789 L33.579579,19.339547 L31.3644376,19.9168398 L32.5776077,8.6357779 Z M36.8670597,13.737716 L34.453358,10.2454508 L34.0503934,14.4710917 L36.8670597,13.737716 Z" id="Shape" fill="#2FAC66"></path>
                        <polygon id="Path" fill="#2FAC66" points="45.5192773 6.89762762 48.2204851 7.4592884 51.3041315 15.9357525 52.8661481 8.42514917 54.9739083 8.86389171 52.8129326 19.2530718 50.1115348 18.6911735 47.028221 10.2154696 45.4659669 17.7253602 43.3584917 17.2870928"></polygon>
                        <path d="M63.2367503,22.7923757 L63.7645337,24.8664486 C62.070297,25.3171484 60.2626944,24.9215706 58.911568,23.8044199 C56.8721719,22.1668467 56.2359711,19.336735 57.3783377,16.983911 C58.5207042,14.631087 61.13811,13.3806987 63.6862297,13.970502 C66.2343495,14.5603052 68.0361449,16.8335885 68.0285424,19.4490663 L65.8797061,19.4351448 C65.9581005,18.328484 65.4780084,17.2559086 64.6004442,16.5771414 C63.0288773,15.3403094 60.944589,15.6850696 59.6885138,17.2803459 C58.4324387,18.8756221 58.586526,20.9838099 60.1580928,22.2203569 C61.0239089,22.9142499 62.179471,23.1289549 63.2367503,22.7923757 Z" id="Path" fill="#2FAC66"></path>
                        <polygon id="Path" fill="#2FAC66" points="72.7726773 22.8511978 75.7655249 28.2618807 74.2006575 29.1274873 72.2495028 25.6001569 70.0480453 26.8172232 71.7056597 29.8142044 70.1408398 30.6800486 68.4831779 27.6830674 66.0961315 29.0026685 68.0472387 32.5307116 66.4821812 33.3958431 63.4896188 27.9856354"></polygon>
                        <path d="M18.3881779,50.9984751 L19.8325978,53.9021867 C20.8719624,55.9916066 20.4418199,57.814189 18.6777271,58.691579 C17.6442697,59.2663997 16.3630303,59.1422666 15.4591414,58.3797459 L12.7310409,63.443863 L11.6037757,61.1776917 L14.1815425,56.7303989 L13.6887768,55.740211 L9.84890055,57.6502663 L8.89049945,55.7232486 L18.3881779,50.9984751 Z M17.7455061,53.7221569 L15.2899448,54.9438796 L15.8297967,56.0291901 C16.0332376,56.4929837 16.4754538,56.8071426 16.9803673,56.8465776 C17.4852808,56.8860125 17.9709103,56.6443206 18.2438918,56.2177367 C18.5168733,55.7911528 18.5328837,55.24894 18.2855481,54.8069923 L17.7455061,53.7221569 Z" id="Shape" fill="#2FAC66"></path>
                        <polygon id="Path" fill="#2FAC66" points="23.132147 59.3894619 27.5809602 63.6833326 26.3390917 64.9704818 23.4383735 62.171158 21.6913856 63.9807691 24.155737 66.3597381 22.9140586 67.645937 20.4495171 65.2679182 18.555189 67.2306663 21.4556696 70.0299901 20.2135635 71.3166641 15.7644652 67.0229834"></polygon>
                        <polygon id="Path" fill="#2FAC66" points="29.4435017 64.8331669 31.3781215 65.7746055 27.5918884 73.5549923 31.2159569 75.3186575 30.3607083 77.0758608 24.8015923 74.3707094"></polygon>
                        <path d="M39.4792265,68.3438674 L42.2885282,68.5758773 L45.4170751,79.4802972 L43.1364122,79.2923801 L42.351579,76.4592265 L38.1221845,76.1093823 L36.8825967,78.7745746 L34.6019337,78.5861823 L39.4792265,68.3438674 Z M41.8380022,74.5763492 L40.7166762,70.4838895 L38.9381867,74.3364519 L41.8380022,74.5763492 Z" id="Shape" fill="#2FAC66"></path>
                        <polygon id="Path" fill="#2FAC66" points="47.1866796 68.6565083 49.7765149 67.7071823 56.8692818 73.2733304 54.2296044 66.0743702 56.2498442 65.3331547 59.9018033 75.2924773 57.3123006 76.242326 50.2191536 70.6758453 52.859116 77.8751381 50.8388762 78.6156884"></polygon>
                        <path d="M68.7131448,63.9278862 L70.8352541,63.653684 C71.0789885,65.3899789 70.4686099,67.1370278 69.1966453,68.3437724 C67.3252947,70.1715558 64.438772,70.4626032 62.2402088,69.0451883 C60.0416455,67.6277734 59.1152122,64.8785111 60.0075312,62.4195454 C60.8998501,59.9605797 63.3738272,58.4452714 65.9697448,58.7676961 L65.6973481,60.8998309 C64.6081598,60.6888611 63.4856006,61.0362253 62.705926,61.825495 C61.2886365,63.237463 61.3802906,65.3482166 62.8133547,66.7870773 C64.2464188,68.2259381 66.3571724,68.327095 67.7746994,66.9153646 C68.5672193,66.1390077 68.9193655,65.0179737 68.7131448,63.9278862 L68.7131448,63.9278862 Z" id="Path" fill="#2FAC66"></path>
                        <polygon id="Path" fill="#2FAC66" points="65.0964884 56.0948066 67.6369094 50.4571503 69.2673934 51.1912387 67.6111569 54.8670497 69.9049337 55.9008552 71.3120077 52.778105 72.9423017 53.5121459 71.5354177 56.6353713 74.0224807 57.755937 75.6785271 54.0805536 77.309011 54.8155448 74.7685901 60.4526785"></polygon>
                    </g>
                </g>
            </g>
        </g>
    </g>
</svg>