<svg xmlns="http://www.w3.org/2000/svg" width="93" height="80" viewBox="0 0 93 80">
    <g fill="none" fill-rule="nonzero">
        <path fill="#E4004A" d="M92.73 56.482C75.257-21.36 41.12 46.072.08 20.902v9.569C32.676 49.69 62.877-9.776 73.4 56.467h19.33v.015z"/>
        <path fill="#55849D" d="M77.447 64.243h-2.174l-.445 1.476H73.67l2.11-6.11h1.27l2.032 6.11h-1.19l-.445-1.476zm-.238-.857l-.793-2.857H76.4l-.873 2.857h1.682zM80.002 61.958c0-.286-.016-.54-.032-.746h1.048c.016.222.032.46.032.682h.031c.16-.27.477-.762 1.238-.762 1.048 0 1.365.762 1.365 1.667v2.904h-1.127v-2.698c0-.682-.174-.984-.65-.984-.588 0-.794.476-.794 1.048v2.618h-1.11v-3.73zM89.318 59.609h1.048v2.285h.015c.16-.27.477-.762 1.238-.762 1.064 0 1.365.762 1.365 1.667v2.904h-1.127v-2.698c0-.698-.174-.984-.634-.984-.588 0-.794.476-.794 1.048v2.618h-1.127V59.61h.016zM84.922 61.482a3.307 3.307 0 0 1 1.476-.334c1.444 0 1.777.683 1.777 1.81v1.967c0 .318.032.62.064.794h-1.016a2.474 2.474 0 0 1-.063-.619h-.016c-.27.365-.635.682-1.302.682-.73 0-1.396-.476-1.396-1.317 0-1.222 1.031-1.523 2.444-1.523h.222v-.175c0-.444-.222-.857-.873-.857-.571 0-1.063.27-1.27.444l-.047-.872zm2.206 2.031h-.095c-.952 0-1.524.19-1.524.841 0 .413.286.683.714.683.667 0 .92-.477.92-1.286v-.238h-.015zM22.615 47.659h-3.888l-.81 2.539H15.84l3.793-10.554H21.9l3.65 10.554H23.41l-.794-2.54zm-.444-1.492l-1.429-4.936h-.031l-1.556 4.936h3.016zM26.82 51.404c.477.238 1.413.666 2.46.666 1.905 0 2.207-1.222 2.207-2.444v-.745h-.032c-.317.603-.889 1.317-2.206 1.317-1.159 0-2.92-.73-2.92-3.873 0-2.142.825-4.03 3.015-4.03 1.222 0 1.778.65 2.206 1.332h.064c0-.412.047-.809.063-1.206h1.825c-.032.397-.063.81-.063 1.222v5.745c0 2.429-.794 4.174-3.857 4.174a8.697 8.697 0 0 1-2.872-.492l.11-1.666zm2.905-2.587c1.27 0 1.778-.841 1.778-2.619 0-1.634-.667-2.507-1.62-2.491-1.047.016-1.46.92-1.46 2.507-.015 1.825.62 2.603 1.302 2.603zM41.406 49.801a6.466 6.466 0 0 1-2.508.508c-2.682 0-3.856-1.793-3.856-3.904 0-2.333 1.317-4.127 3.443-4.127 1.81 0 3.35.984 3.35 4.159v.365h-4.841c0 1.333.571 2.126 2.126 2.126 1.238 0 1.825-.349 2.19-.603l.096 1.476zm-1.524-4.174c0-1.365-.492-2.063-1.397-2.063-1.063 0-1.491 1.047-1.491 2.063h2.888zM43.485 43.691c0-.476-.016-.936-.064-1.286h1.873c.016.397.063.794.063 1.19h.048-.016c.302-.46.857-1.317 2.222-1.317 1.904 0 2.46 1.318 2.46 2.889v5.015h-2.016v-4.666c0-1.19-.317-1.698-1.158-1.698-1.048 0-1.429.841-1.429 1.825v4.539h-1.983V43.69zM57.419 49.991c-.476.175-1.175.318-1.984.318-2.761 0-3.936-1.793-3.936-4 0-2.221 1.238-4.03 4.047-4.03.635 0 1.38.174 1.746.317l-.111 1.476c-.365-.159-.857-.381-1.413-.381-1.523 0-2.19.952-2.19 2.619 0 1.444.746 2.57 2.285 2.57.492 0 1.143-.206 1.429-.38l.127 1.491zM64.75 49.801a6.368 6.368 0 0 1-2.49.508c-2.699 0-3.873-1.793-3.873-3.904 0-2.333 1.317-4.127 3.444-4.127 1.809 0 3.348.984 3.348 4.159v.365h-4.824c0 1.333.571 2.126 2.126 2.126 1.238 0 1.81-.349 2.19-.603l.08 1.476zm-1.523-4.174c0-1.365-.492-2.063-1.396-2.063-1.064 0-1.492 1.047-1.492 2.063h2.888zM9.744 58.18a4.886 4.886 0 0 1 2.08-.444c2.047 0 2.523.92 2.523 2.46v2.666c0 .445.047.841.08 1.08h-1.43c-.079-.239-.094-.54-.094-.842h-.032c-.397.492-.889.937-1.841.937-1.016 0-1.968-.651-1.968-1.794 0-1.666 1.46-2.079 3.46-2.079h.317v-.222c0-.603-.317-1.158-1.222-1.158-.793 0-1.492.365-1.793.587l-.08-1.19zm3.11 2.778h-.142c-1.349 0-2.158.254-2.158 1.158 0 .556.397.937 1.015.937.937 0 1.286-.651 1.286-1.746v-.35zM16.299 56.562l1.587-.445v1.714h1.317v1.08h-1.317v3.174c0 .65.254.84.714.84.286 0 .492-.079.603-.126v1.047c-.238.111-.587.207-1.063.207-1.175 0-1.841-.508-1.841-1.778v-3.349H15.25v-1.079H16.3v-1.285zM20.568 55.229h1.635v1.444h-1.635v-1.444zm.032 2.602h1.587v6.126H20.6v-6.126zM26.329 57.736c1.349 0 2.888.65 2.888 3.142 0 2.571-1.54 3.159-2.888 3.159-1.333 0-2.889-.603-2.889-3.159 0-2.491 1.556-3.142 2.889-3.142m0 5.253c1.016 0 1.254-1.095 1.254-2.11 0-1.016-.238-2.095-1.254-2.095s-1.254 1.079-1.254 2.094c0 1.032.238 2.111 1.254 2.111M30.471 58.831c0-.38-.016-.73-.048-1.015H31.9c.016.317.048.634.048.936h.032-.016c.238-.365.682-1.032 1.746-1.032 1.491 0 1.936 1.032 1.936 2.27v3.951h-1.587v-3.666c0-.936-.254-1.333-.905-1.333-.841 0-1.127.651-1.127 1.429v3.57H30.44v-5.11h.032zM2.73 58.831c0-.38-.016-.73-.048-1.015h1.476c.016.317.048.634.048.936h.031-.015c.238-.365.666-1.032 1.745-1.032 1.492 0 1.936 1.032 1.936 2.27v3.951H6.348v-3.666c0-.936-.254-1.333-.904-1.333-.842 0-1.127.651-1.127 1.429v3.57H2.73v-5.11zM37.47 58.18a4.886 4.886 0 0 1 2.079-.444c2.047 0 2.507.92 2.507 2.46v2.666c0 .445.048.841.096 1.08h-1.429c-.08-.239-.095-.54-.095-.842h-.016c-.397.492-.889.937-1.84.937-1.032 0-1.969-.651-1.969-1.794 0-1.666 1.444-2.079 3.46-2.079h.317v-.222c0-.603-.317-1.158-1.222-1.158-.793 0-1.491.365-1.809.587l-.08-1.19zm3.11 2.778h-.142c-1.35 0-2.159.254-2.159 1.158 0 .556.397.937 1 .937.952 0 1.286-.651 1.286-1.746v-.35h.015zM43.627 55.038h1.587v8.903h-1.587zM51.515 63.656c-.333.127-1.016.397-1.968.397-2.127 0-3.031-1.413-3.031-3.063 0-1.825 1.031-3.238 2.714-3.238 1.412 0 2.634.778 2.634 3.27v.285h-3.809c0 1.047.445 1.682 1.667 1.682.968 0 1.428-.27 1.73-.476l.063 1.143zm-1.19-3.301c0-1.08-.381-1.635-1.095-1.635-.826 0-1.175.825-1.175 1.635h2.27zM8.046 70.607v7.745c0 .428.016.81.048 1.031h-1.46c-.032-.174-.048-.523-.048-.936h-.032c-.253.508-.714 1.031-1.73 1.031-1.602 0-2.269-1.428-2.269-3.094 0-1.968.841-3.11 2.238-3.11.936 0 1.444.491 1.682.951h.032v-3.618h1.54zm-2.904 7.808c.92 0 1.238-.92 1.238-2.063 0-1.174-.35-2.031-1.206-2.031-.873 0-1.175.777-1.175 1.983 0 1.413.238 2.111 1.143 2.111zM17.902 68.052h2.016v11.331h-2.016zM21.87 68.48h1.618v1.254l-.317 2.492h-1.302zM34.407 72.051c.571-.238 1.365-.571 2.65-.571 2.603 0 3.206 1.19 3.206 3.126v3.397c0 .57.063 1.079.111 1.38H38.55c-.095-.301-.111-.682-.111-1.063h-.032c-.508.635-1.143 1.174-2.333 1.174-1.301 0-2.507-.825-2.507-2.285 0-2.11 1.857-2.65 4.396-2.65h.397v-.286c0-.778-.397-1.476-1.556-1.476-1 0-1.904.46-2.285.762l-.111-1.508zm3.967 3.523H38.2c-1.714 0-2.746.334-2.746 1.476 0 .715.508 1.19 1.286 1.19 1.206 0 1.634-.825 1.634-2.221v-.445zM44.167 68.052v4.666h.032c.285-.603.952-1.238 2.158-1.238 1.81 0 2.889 1.476 2.889 4.015 0 2.158-.857 4-2.936 4-1.302 0-1.905-.667-2.222-1.334h-.048c0 .524-.032.984-.063 1.206h-1.889c.048-.285.064-.777.064-1.333v-9.998h2.015v.016zm1.587 10.078c1.174 0 1.476-.905 1.476-2.698 0-1.556-.397-2.571-1.508-2.571-1.095 0-1.555 1.11-1.555 2.618 0 1.46.413 2.65 1.587 2.65zM50.912 68.29h2.079v1.84h-2.08v-1.84zm.032 3.317h2.015v7.776h-2.015v-7.776zM55.72 70.004l2.016-.571v2.174h1.667v1.365h-1.667v4.047c0 .825.318 1.079.905 1.079.349 0 .619-.095.762-.175v1.333c-.302.143-.746.254-1.35.254-1.491 0-2.332-.635-2.332-2.27v-4.268h-1.333v-1.365h1.333v-1.603zM61.386 72.051c.572-.238 1.365-.571 2.65-.571 2.603 0 3.206 1.19 3.206 3.126v3.397c0 .57.064 1.079.112 1.38h-1.826c-.095-.301-.11-.682-.11-1.063h-.032c-.508.635-1.143 1.174-2.333 1.174-1.302 0-2.508-.825-2.508-2.285 0-2.11 1.857-2.65 4.396-2.65h.413v-.286c0-.778-.413-1.476-1.555-1.476-1.016 0-1.889.46-2.286.762l-.127-1.508zm3.968 3.523h-.175c-1.714 0-2.745.334-2.745 1.476 0 .715.508 1.19 1.285 1.19 1.206 0 1.635-.825 1.635-2.221v-.445zM69.512 70.004l2.015-.571v2.174h1.667v1.365h-1.667v4.047c0 .825.318 1.079.905 1.079.365 0 .619-.095.762-.175v1.333c-.302.143-.746.254-1.35.254-1.49 0-2.332-.635-2.332-2.27v-4.268h-1.333v-1.365h1.333v-1.603zM25.662 68.052h1.905v4.793h.031c.286-.476.873-1.302 2.238-1.302 1.92 0 2.492 1.302 2.492 2.857v4.983h-2.032V74.75c0-1.19-.333-1.682-1.158-1.682-1.063 0-1.444.825-1.444 1.81v4.506h-2.032V68.052zM14.236 79.113c-.334.127-1 .381-1.937.381-2.079 0-2.999-1.396-2.999-3.015 0-1.793 1.016-3.19 2.666-3.19 1.397 0 2.587.762 2.587 3.222v.285h-3.73c0 1.032.445 1.65 1.651 1.65.952 0 1.413-.269 1.698-.475l.064 1.142zm-1.19-3.237c0-1.063-.381-1.603-1.08-1.603-.825 0-1.158.81-1.158 1.603h2.237zM80.843 9.998c0 1.556-1.428 2.81-3.205 2.81h-9.38c-1.777 0-3.206-1.254-3.206-2.81V2.952c0-1.555 1.445-2.81 3.206-2.81h9.38c1.761 0 3.205 1.255 3.205 2.81v7.046z"/>
    </g>
</svg>
